<?xml version="1.0" encoding="UTF-8"?>
<svg version="1.1" xmlns="http://www.w3.org/2000/svg" width="2000" height="1997">
<path d="M0 0 C0.90970964 0.0030972 1.81941927 0.00619441 2.75669587 0.00938547 C3.71930081 0.00485435 4.68190575 0.00032324 5.67368054 -0.00434518 C8.91959076 -0.0170693 12.16533491 -0.01536366 15.4112674 -0.01371634 C17.73016813 -0.0196966 20.04906687 -0.02650097 22.36796296 -0.03407156 C28.6819719 -0.05179006 34.9959267 -0.05642941 41.3099581 -0.05770314 C46.57361252 -0.05959825 51.83725421 -0.06695132 57.10090375 -0.07404733 C68.80571422 -0.08941894 80.51049819 -0.09538325 92.21531795 -0.09403662 C92.91806721 -0.09395671 93.62081646 -0.0938768 94.34486115 -0.09379447 C95.40026841 -0.09367182 95.40026841 -0.09367182 96.47699703 -0.0935467 C107.88117704 -0.09273372 119.285225 -0.11187259 130.6893668 -0.1400712 C142.39186729 -0.16877978 154.09430334 -0.1826126 165.79683995 -0.18088365 C172.36982108 -0.18037268 178.94265284 -0.18612994 185.51560318 -0.20723975 C191.69617844 -0.22654625 197.87646071 -0.22679861 204.05704606 -0.21220648 C206.32907772 -0.21010783 208.60112736 -0.21488165 210.87312806 -0.2269274 C213.967967 -0.2422764 217.0617826 -0.23314005 220.15659821 -0.21766531 C221.0618464 -0.22795244 221.9670946 -0.23823957 222.89977455 -0.24883842 C228.92269449 -0.18200017 228.92269449 -0.18200017 232.09410584 2.0195421 C233.66957838 4.40705863 234.32557125 6.08529428 234.84306061 8.88758981 C235.02252417 9.81791151 235.20198773 10.7482332 235.38688958 11.70674646 C235.56734637 12.72985799 235.74780316 13.75296953 235.93372834 14.80708444 C236.13982035 15.90416601 236.34591237 17.00124757 236.55824959 18.13157403 C237.2501251 21.84377425 237.9176352 25.55988598 238.58363068 29.276811 C238.94553285 31.25649835 239.30744978 33.23618319 239.67039204 35.21568012 C241.32201626 44.23094046 242.93048471 53.25376635 244.53463709 62.27757251 C245.30631122 66.61489985 246.08112692 70.95166612 246.85557282 75.28849924 C248.19217474 82.77555156 249.52700489 90.26291786 250.86060822 97.75050485 C252.99820436 109.75180284 255.13969972 121.75240347 257.28187287 133.75288522 C257.83275497 136.83905842 258.38363169 139.92523258 258.93450749 143.0114069 C259.30407238 145.0818162 259.67364217 147.15222462 260.04321682 149.22263217 C261.35217367 156.55576221 262.66066856 163.8889746 263.96900666 171.22221506 C268.74484257 197.98956219 273.52960778 224.75529455 278.32581818 251.5189985 C278.55847598 252.81727217 278.55847598 252.81727217 278.79583395 254.14177358 C280.67058823 264.60293616 282.545913 275.06399642 284.42145997 285.5250169 C286.1687931 295.27099962 287.91565635 305.01706654 289.6624881 314.76313913 C289.82197886 315.65298045 289.98146962 316.54282177 290.14579344 317.45962799 C290.79352149 321.07347692 291.44124846 324.68732605 292.08896977 328.30117619 C293.06887641 333.76839081 294.04881674 339.23559939 295.02878076 344.70280373 C302.92494798 388.7555983 310.81483908 432.80951688 318.70459569 476.86345994 C319.64732192 482.1273431 320.59005565 487.39122491 321.5327884 492.6551069 C323.04577025 501.10306395 324.55875058 509.55102128 326.07172883 517.99897897 C326.25971448 519.04862691 326.44770014 520.09827485 326.64138234 521.1797303 C327.59306091 526.49358382 328.54473572 531.80743802 329.49640381 537.12129343 C334.76737717 566.55296633 340.03886281 595.98454742 345.31084657 625.41603935 C346.69468418 633.14151173 348.07845769 640.8669956 349.46220124 648.59248483 C350.2461648 652.96935702 351.03013139 657.34622867 351.81409943 661.72310007 C352.00727525 662.80159943 352.20045107 663.8800988 352.3994807 664.99127996 C354.70120142 677.84168359 357.0032848 690.69202215 359.30593061 703.54226005 C361.32976203 714.83654025 363.3533238 726.13086873 365.37659943 737.4252485 C365.55392845 738.41512136 365.73125747 739.40499422 365.9139601 740.42486322 C370.43578069 765.66696539 374.94865575 790.91063453 379.44432867 816.15740728 C380.39836351 821.51504029 381.35296926 826.87257126 382.30799592 832.23002756 C382.56857411 833.69188121 382.82915226 835.15373488 383.08973038 836.61558855 C383.47054328 838.7519437 383.85136611 840.88829708 384.23222506 843.02464402 C385.77414585 851.67406133 387.31243744 860.3241093 388.84694493 868.97484529 C389.68275674 873.68242728 390.52168709 878.38944927 391.36154473 883.09631097 C391.74204485 885.23283915 392.12114981 887.36961634 392.49875557 889.50665796 C393.00287789 892.35907955 393.51172695 895.21061611 394.0218631 898.06196725 C394.1675215 898.89326339 394.3131799 899.72455953 394.46325219 900.58104646 C394.84727594 904.23429926 394.84727594 904.23429926 396.58363068 907.276811 C396.7205193 906.49264495 396.85740792 905.7084789 396.99844468 904.90055025 C413.81152619 808.58725133 430.62842585 712.27461936 447.45863068 615.964311 C447.64448416 614.90076615 447.83033764 613.83722129 448.02182305 612.74144781 C460.41754155 541.80738785 472.82633932 470.87562184 485.24220002 399.94508493 C493.56245935 352.41216443 501.87863003 304.87853334 510.18519318 257.34321725 C510.38531541 256.19800466 510.58543765 255.05279206 510.79162419 253.87287605 C514.50155839 232.64246206 518.21118605 211.41199452 521.91981232 190.18135202 C522.09866054 189.15752849 522.27750875 188.13370496 522.46177661 187.07885647 C523.35264315 181.97903367 524.24345141 176.87920071 525.13415635 171.77934968 C526.86448288 161.87279632 528.59614839 151.96648003 530.33063996 142.060655 C531.01436365 138.15502435 531.69796167 134.24937173 532.38148224 130.34370553 C532.55047075 129.37821259 532.71945926 128.41271965 532.89356863 127.41796935 C535.31682109 113.56910408 537.72049072 99.71693868 540.11299813 85.86273038 C541.48483294 77.92032467 542.8625216 69.97893754 544.24172831 62.03780895 C545.36821534 55.54901709 546.48730306 49.05900705 547.6008321 42.56797969 C548.28762168 38.57542791 548.98160742 34.58415204 549.67762339 30.59319937 C549.99866615 28.74364372 550.31671808 26.89356605 550.63154471 25.04294217 C551.06314662 22.50830757 551.50541941 19.9757544 551.95029938 17.44342172 C552.07200788 16.71302401 552.19371638 15.9826263 552.31911302 15.23009533 C553.16621133 10.49540169 554.41373513 6.53961945 556.58363068 2.276811 C559.62100936 0.25189188 560.18431728 0.02669419 563.58603489 0.02512872 C564.40240581 0.01991323 565.21877673 0.01469773 566.05988616 0.00932419 C567.40461844 0.01601636 567.40461844 0.01601636 568.77651703 0.02284372 C570.2054468 0.01816375 570.2054468 0.01816375 571.66324383 0.01338923 C574.8692715 0.00538405 578.07511122 0.01174269 581.28114045 0.01802194 C583.57387636 0.01531322 585.86661141 0.01175296 588.15934479 0.00740182 C594.39672741 -0.00173804 600.63404408 0.00182853 606.87142789 0.00816 C613.38747143 0.01321112 619.90350918 0.00853108 626.41955292 0.00538766 C638.06413033 0.00151218 649.70867754 0.00774057 661.3532502 0.01790634 C671.91858399 0.02684421 682.48387385 0.02528838 693.04920685 0.01606882 C705.31040886 0.00537445 717.57157957 0.00137697 729.83278614 0.00729334 C736.32627361 0.01041812 742.81973078 0.01080845 749.31321633 0.00422037 C755.41576139 -0.00153827 761.51822311 0.00241653 767.62075913 0.01400888 C769.86621251 0.01666331 772.11167285 0.01587713 774.35712349 0.01148355 C777.41075445 0.00605751 780.46411451 0.01282625 783.51772797 0.02284372 C784.86580634 0.01615155 784.86580634 0.01615155 786.24111861 0.00932419 C792.3553305 0.04851083 792.3553305 0.04851083 794.58363068 2.276811 C795.28462137 9.20414116 793.44019934 15.9914344 792.07801545 22.75142038 C791.80511128 24.13050075 791.53279755 25.50969807 791.26102173 26.88900125 C790.51443235 30.66921465 789.75957747 34.44773674 789.00337636 38.22603738 C788.19030662 42.29619045 787.3850282 46.36788514 786.57885468 50.43940866 C785.18005165 57.49860316 783.77649772 64.5568394 782.36976349 71.61445749 C780.30914725 81.95300364 778.2562513 92.29307129 776.20549715 102.6335777 C775.24693783 107.46688517 774.28810675 112.30013872 773.32920563 117.13337839 C773.13758123 118.09924418 772.94595682 119.06510998 772.74852562 120.06024444 C771.37286641 126.99329921 769.99582048 133.92607772 768.61808503 140.85872018 C763.46543357 166.78682327 758.3267989 192.71765008 753.20472443 218.651811 C753.03645292 219.50376944 752.8681814 220.35572787 752.69481075 221.23350322 C751.17092115 228.94902195 749.64723509 236.66458086 748.12384808 244.38019884 C745.74064079 256.45059837 743.35628761 268.52077107 740.97108185 280.59077585 C740.71574746 281.88286199 740.71574746 281.88286199 740.45525479 283.20105088 C739.59487493 287.55485602 738.73447463 291.90865712 737.87406456 296.2624563 C736.84254885 301.48210404 735.81111007 306.70176699 734.77969086 311.92143381 C730.46151199 333.77425681 726.14298079 355.62701016 721.82429624 377.47973323 C718.70847783 393.24591867 715.59275447 409.01212289 712.4770757 424.77833593 C711.9584855 427.40254567 711.43989285 430.02675492 710.92130005 432.65096414 C703.22763254 471.58294863 695.53549118 510.51523347 687.84925568 549.448686 C687.69137464 550.24840373 687.53349359 551.04812146 687.37082827 551.87207305 C685.61948202 560.74320517 683.86818037 569.6143461 682.11689484 578.4854902 C681.95945231 579.28301537 681.80200978 580.08054053 681.63979626 580.90223312 C680.68581673 585.73461788 680.68581673 585.73461788 679.73184216 590.56700361 C668.6746586 646.57761862 657.60380761 702.58552277 646.52679884 758.59222019 C635.84120064 812.61991179 625.16274419 866.64900385 614.49663365 920.68054616 C611.79267908 934.37802259 609.08865709 948.0754857 606.38441193 961.77290475 C606.22616409 962.57445647 606.06791625 963.37600818 605.90487301 964.20184934 C598.37979995 1002.31725045 590.84623526 1040.43097221 583.31140393 1078.54444528 C582.07108809 1084.81834564 580.8308098 1091.09225342 579.59055817 1097.36616647 C579.32900642 1098.68924694 579.32900642 1098.68924694 579.0621708 1100.0390563 C578.88782677 1100.92098965 578.71348274 1101.80292299 578.53385556 1102.71158159 C572.15120464 1134.99873518 565.76823178 1167.28582508 559.38438308 1199.57274187 C556.13288704 1216.0175562 552.88187964 1232.46246708 549.63127053 1248.90745676 C547.64390753 1258.96153479 545.65617767 1269.01554013 543.66792536 1279.06944233 C542.31698709 1285.90084227 540.9665088 1292.73233304 539.61637282 1299.56389159 C538.69724599 1304.21449989 537.77766238 1308.86501746 536.85762715 1313.51544613 C536.29289146 1316.37085989 535.72885389 1319.2264114 535.16480386 1322.08196068 C534.76034367 1324.12753071 534.35468102 1326.1728596 533.94889367 1328.21816671 C532.57643301 1335.14957687 531.23914251 1342.08608738 529.94605744 1349.03276193 C529.54511341 1351.16850631 529.14352646 1353.30412883 528.74174654 1355.4397161 C528.36916072 1357.43671368 528.00640271 1359.43532842 527.64396012 1361.43418729 C527.41717701 1362.63986954 527.19039391 1363.84555179 526.95673859 1365.08776987 C526.66635397 1366.66879385 526.66635397 1366.66879385 526.370103 1368.28175771 C525.09578547 1373.13462897 523.81351631 1376.45688725 519.58363068 1379.276811 C517.6254546 1379.52750933 517.6254546 1379.52750933 515.35255253 1379.52849329 C514.48516408 1379.53370878 513.61777563 1379.53892427 512.72410268 1379.54429781 C511.7706145 1379.53983637 510.81712633 1379.53537493 509.83474457 1379.53077829 C508.82228258 1379.53389827 507.80982058 1379.53701825 506.76667792 1379.54023278 C503.3580289 1379.54824017 499.94955656 1379.5418784 496.54090607 1379.53560007 C494.10363389 1379.53830873 491.66636252 1379.54186895 489.22909272 1379.54622018 C483.28646615 1379.55441139 477.34390947 1379.55318718 471.4012856 1379.5473949 C466.57205796 1379.54288233 461.74284448 1379.54226375 456.91361535 1379.54444253 C455.88352301 1379.54490223 455.88352301 1379.54490223 454.83262072 1379.54537122 C453.43763224 1379.54601066 452.04264377 1379.54665908 450.6476553 1379.5473164 C437.5587046 1379.55302304 424.46978188 1379.54645679 411.38083576 1379.53571567 C400.14641809 1379.52678184 388.91204175 1379.52833016 377.67762482 1379.53755319 C364.6377918 1379.54825336 351.59798333 1379.55247159 338.55814654 1379.54632866 C337.16791829 1379.54569155 335.77769004 1379.54506281 334.38746178 1379.54444253 C333.70341025 1379.54413398 333.01935871 1379.54382543 332.31457834 1379.54350753 C327.4908609 1379.54177968 322.66715902 1379.54469767 317.84344399 1379.54940164 C311.3518535 1379.55559278 304.86032278 1379.55119215 298.36873925 1379.53961313 C295.98222082 1379.53696235 293.59569584 1379.53773872 291.20918 1379.54213846 C287.95919706 1379.54757886 284.70946712 1379.54077791 281.45950043 1379.53077829 C280.50824298 1379.53523973 279.55698553 1379.53970118 278.57690209 1379.54429781 C277.70690589 1379.53908232 276.83690969 1379.53386683 275.94054997 1379.52849329 C275.19032993 1379.52816858 274.4401099 1379.52784388 273.66715592 1379.52750933 C271.21845772 1379.23287189 269.66558 1378.59357857 267.58363068 1377.276811 C265.14483211 1373.61861315 264.55424592 1370.09187838 263.72463715 1365.85485971 C263.54849064 1364.98348613 263.37234414 1364.11211255 263.19085985 1363.21433371 C262.59932116 1360.27961825 262.01743342 1357.3430713 261.43543732 1354.40644968 C261.01335273 1352.30227872 260.59067451 1350.19822678 260.16744721 1348.09428537 C259.01157187 1342.33952283 257.86402513 1336.58312638 256.71780431 1330.82643425 C255.49844076 1324.71013479 254.27126665 1318.5954028 253.04491913 1312.48050058 C250.96672399 1302.11275455 248.89311999 1291.74409859 246.82313263 1281.37471139 C243.72336118 1265.84684489 240.61634525 1250.32043338 237.50745881 1234.79438913 C236.49183804 1229.72197618 235.47625204 1224.64955627 234.46067536 1219.57713449 C234.21022159 1218.32626491 233.95976781 1217.07539533 233.70172453 1215.78662062 C232.18990521 1208.23551834 230.67893348 1200.68424703 229.16863632 1193.13284016 C219.70857347 1145.8336636 210.16491706 1098.55156631 200.58363068 1051.276811 C194.64363068 1050.946811 188.70363068 1050.616811 182.58363068 1050.276811 C182.58455247 1051.55410263 182.58547427 1052.83139425 182.58642399 1054.14739168 C182.64708574 1139.29516486 182.67519893 1224.44299086 182.25791504 1511.59155402 C182.2214233 1524.73612275 182.19029575 1537.88069633 182.16203034 1551.02528512 C182.12979485 1565.98564153 182.09030921 1580.94595876 182.04094094 1595.90626889 C182.01584954 1603.55488406 181.99373592 1611.20347734 181.98026955 1618.85212266 C181.96792527 1625.85282246 181.94566283 1632.85342638 181.91624355 1639.85407507 C181.90716891 1642.39553511 181.90148149 1644.93700983 181.89941812 1647.47848523 C181.89611341 1650.91927598 181.88070193 1654.35980143 181.86210358 1657.80053842 C181.8640383 1658.80032592 181.86597301 1659.80011342 181.86796635 1660.83019751 C181.78449059 1671.07595109 181.78449059 1671.07595109 177.58363068 1675.276811 C175.57521641 1675.55149877 175.57521641 1675.55149877 173.04678071 1675.58673227 C172.08297801 1675.60480621 171.11917531 1675.62288015 170.12616646 1675.64150178 C169.05711257 1675.65126857 167.98805867 1675.66103536 166.8866092 1675.67109811 C165.75287055 1675.68895175 164.61913189 1675.7068054 163.45103753 1675.72520006 C160.27669403 1675.77250366 157.10239839 1675.81050566 153.92788494 1675.84411871 C151.18502648 1675.87460086 148.44228087 1675.91215934 145.69950813 1675.94946724 C107.63083545 1676.46382063 69.55727534 1676.63508091 31.48591292 1676.82450426 C28.49913777 1676.83942084 25.51236379 1676.85455358 22.52559006 1676.86975229 C-4.63297368 1677.00781894 -31.79158339 1677.13081347 -58.95027083 1677.24179077 C-65.33244879 1677.26795153 -71.71461998 1677.29542675 -78.09678924 1677.32362497 C-95.54814655 1677.40025522 -112.99944311 1677.4671028 -130.45094478 1677.49981534 C-131.89229033 1677.50252929 -133.33363586 1677.50525132 -134.77498138 1677.50798166 C-135.48004847 1677.50931035 -136.18511556 1677.51063905 -136.91154832 1677.51200801 C-141.76199598 1677.52188067 -146.61237584 1677.53945506 -151.46278656 1677.56053293 C-237.62717527 1677.92451745 -317.22683091 1664.35365144 -389.81602752 1615.27974069 C-391.24282117 1614.18830556 -391.24282117 1614.18830556 -392.41636932 1614.276811 C-392.62616424 1615.37460886 -392.62616424 1615.37460886 -392.84019744 1616.49458444 C-405.90046981 1684.04264909 -432.9710809 1745.69654084 -476.41636932 1799.276811 C-477.17304901 1800.22685007 -477.92972869 1801.17688913 -478.70933807 1802.15571725 C-483.88377187 1808.59399506 -489.37279732 1814.69982529 -494.99595916 1820.7431196 C-496.43281742 1822.29457088 -497.85791602 1823.85602756 -499.27965057 1825.42134225 C-506.2939135 1833.14149608 -513.38444679 1840.64305774 -521.30699432 1847.44477975 C-523.59266478 1849.42992688 -525.8133831 1851.4772093 -528.04136932 1853.526811 C-534.24620659 1859.11022299 -540.78174321 1864.22170475 -547.41636932 1869.276811 C-548.11906951 1869.81467233 -548.82176971 1870.35253366 -549.54576385 1870.90669382 C-625.66197912 1928.91117043 -715.69761094 1954.95309746 -810.55699432 1955.558061 C-812.87905398 1955.57600591 -815.20111102 1955.59429259 -817.52316558 1955.61288583 C-823.89387076 1955.662625 -830.26460403 1955.70660773 -836.63535964 1955.74933374 C-840.69483065 1955.7767504 -844.75428533 1955.80620621 -848.8137387 1955.83610666 C-870.6811953 1955.99689022 -892.54874751 1956.14047165 -914.41636932 1956.276811 C-915.77465237 1956.28528039 -915.77465237 1956.28528039 -917.16037548 1956.29392087 C-945.9826908 1956.47336966 -974.80506054 1956.64270467 -1003.62747467 1956.80546701 C-1008.56147566 1956.83335328 -1013.49547442 1956.86161371 -1018.42947268 1956.88997769 C-1039.48008177 1957.01081437 -1060.53067548 1957.12199249 -1081.58145607 1957.20848405 C-1090.46482249 1957.24568233 -1099.34796546 1957.29415692 -1108.23116189 1957.36073893 C-1114.01247121 1957.40365479 -1119.79377506 1957.43680227 -1125.57519048 1957.46160942 C-1128.84144765 1957.47604855 -1132.10742762 1957.49715953 -1135.37357414 1957.52827775 C-1138.86750231 1957.56098068 -1142.36103398 1957.57543168 -1145.85509002 1957.58516061 C-1146.86570055 1957.59925155 -1147.87631107 1957.61334249 -1148.91754615 1957.62786043 C-1157.4820556 1957.61706544 -1157.4820556 1957.61706544 -1161.41636932 1954.276811 C-1163.71596518 1950.82741721 -1163.66507272 1949.57398348 -1163.66105777 1945.51281428 C-1163.6647065 1944.30039555 -1163.66835523 1943.08797681 -1163.67211452 1941.83881811 C-1163.66601444 1940.48326043 -1163.65972808 1939.12770358 -1163.65327632 1937.77214754 C-1163.65371461 1936.33306715 -1163.65502602 1934.89398682 -1163.65713489 1933.45490792 C-1163.66036426 1929.47052661 -1163.6509434 1925.48625762 -1163.63953768 1921.50189495 C-1163.62929077 1917.17354433 -1163.63050314 1912.84519454 -1163.63019991 1908.5168339 C-1163.62768644 1899.90154467 -1163.61405507 1891.28630457 -1163.59697448 1882.67103328 C-1163.58300257 1875.47372487 -1163.57365073 1868.27642259 -1163.56726146 1861.07910359 C-1163.56633482 1860.03915096 -1163.56540819 1858.99919834 -1163.56445347 1857.927732 C-1163.56257588 1855.8056953 -1163.56070363 1853.6836586 -1163.55883663 1851.5616219 C-1163.5347671 1825.18531966 -1163.48535678 1798.80907822 -1163.4310475 1772.43282342 C-1163.41884644 1766.50702518 -1163.40698485 1760.58122632 -1163.39524783 1754.65542715 C-1163.25618623 1684.49022049 -1163.0686909 1614.32515666 -1162.86750287 1544.16010533 C-1162.8124154 1524.94387395 -1162.75827146 1505.7276401 -1162.7048306 1486.51140408 C-1162.69875497 1484.32675699 -1162.69267706 1482.14210991 -1162.68659844 1479.95746283 C-1162.6702859 1474.0946534 -1162.6539756 1468.23184396 -1162.63766963 1462.36903451 C-1162.52477458 1421.78194179 -1162.4108807 1381.19485196 -1162.29472721 1340.60776842 C-1162.29256606 1339.85254203 -1162.29040491 1339.09731565 -1162.28817828 1338.31920362 C-1162.26410578 1329.90728679 -1162.24001677 1321.49537001 -1162.21592105 1313.08345325 C-1162.21374763 1312.32469902 -1162.2115742 1311.56594479 -1162.20933491 1310.78419801 C-1162.20054597 1307.7159715 -1162.19175701 1304.647745 -1162.18296703 1301.5795185 C-1162.0435152 1252.90163835 -1161.90718925 1204.22375041 -1161.77354705 1155.54585397 C-1161.73970688 1143.2205041 -1161.70585784 1130.89515425 -1161.67195499 1118.56980455 C-1161.66986516 1117.81001387 -1161.66777532 1117.0502232 -1161.66562216 1116.26740856 C-1161.60089588 1092.73937866 -1161.53532385 1069.21135124 -1161.46888149 1045.68332613 C-1161.46678722 1044.94169886 -1161.46469296 1044.20007159 -1161.46253523 1043.43597078 C-1161.4164967 1027.13583385 -1161.37024914 1010.83569752 -1161.32381274 994.53556173 C-1161.30719407 988.70163402 -1161.29058787 982.86770628 -1161.27398655 977.03377853 C-1161.2698598 975.58369138 -1161.26573221 974.13360423 -1161.26160377 972.68351708 C-1161.1968514 949.93808597 -1161.13393798 927.19265029 -1161.0720038 904.44721135 C-1161.00777333 880.86519886 -1160.94092276 857.28319527 -1160.87136132 833.70119782 C-1160.83511261 821.39216879 -1160.79981746 809.08313932 -1160.76770103 796.77409875 C-1160.70381216 772.47587213 -1160.62603068 748.17780346 -1160.50996149 723.87976392 C-1160.45215389 711.72780958 -1160.40304948 699.57587872 -1160.36586154 687.42384422 C-1160.32825867 675.17616896 -1160.27485811 662.92865224 -1160.20454223 650.68112002 C-1160.16744352 644.11484555 -1160.13699479 637.54870375 -1160.12332929 630.98233517 C-1160.11036281 624.87486171 -1160.07880761 618.76777086 -1160.03276062 612.66045992 C-1160.01907758 610.40881504 -1160.01225815 608.15711694 -1160.01264066 605.90543051 C-1160.01211076 602.82656632 -1159.98721994 599.74883979 -1159.95609599 596.67015529 C-1159.96173658 595.76878562 -1159.96737717 594.86741595 -1159.97318869 593.93873205 C-1159.87541625 587.89211654 -1159.87541625 587.89211654 -1157.51030526 584.72192679 C-1155.15512709 583.09651644 -1153.98618975 582.76761268 -1151.15013397 582.73983896 C-1150.29429718 582.72191608 -1149.43846038 582.7039932 -1148.55668914 582.68552721 C-1147.61512969 582.68608299 -1146.67357025 582.68663877 -1145.70347869 582.68721139 C-1144.69073883 582.67218765 -1143.67799896 582.6571639 -1142.63457 582.64168489 C-1139.17635374 582.59578088 -1135.71859082 582.57895959 -1132.26011932 582.56196725 C-1129.73198633 582.53538823 -1127.20386919 582.50726556 -1124.67576873 582.477754 C-1118.26864254 582.40706198 -1111.86152299 582.36033001 -1105.45413339 582.32134598 C-1099.83666722 582.28696013 -1094.21929836 582.24491695 -1088.60191619 582.19886911 C-1063.07557929 581.99130757 -1037.54906621 581.85026755 -1012.02218807 581.72911775 C-1008.89821232 581.71422444 -1005.77423786 581.69908549 -1002.65026367 581.68386972 C-972.66005822 581.53795025 -942.66980013 581.41124339 -912.6794461 581.3001188 C-908.54100708 581.2847783 -904.40256928 581.26916046 -900.26413238 581.25325906 C-877.35831699 581.16529541 -854.45255644 581.08886818 -831.54659164 581.05380666 C-829.77621479 581.05109011 -828.00583795 581.04836804 -826.23546112 581.04564035 C-824.93291558 581.0436473 -824.93291558 581.0436473 -823.604056 581.041614 C-817.57800607 581.03167475 -811.55200905 581.01410569 -805.52598846 580.99308908 C-798.21764031 580.96774157 -790.90936877 580.95345369 -783.60097504 580.95297235 C-779.92086673 580.95249609 -776.24093168 580.94776015 -772.56086624 580.92921007 C-716.9822538 580.66294152 -662.72460188 591.17353268 -612.41636932 615.276811 C-611.5986203 615.66449655 -610.78087127 616.0521821 -609.93834198 616.45161569 C-589.94592477 625.97775868 -571.52566329 637.57530572 -553.41636932 650.276811 C-552.27993254 651.06888238 -551.14324461 651.86059365 -550.00621307 652.651811 C-547.80511774 654.18731492 -545.6091426 655.72947994 -543.41636932 657.276811 C-543.37769744 655.32581491 -543.37769744 655.32581491 -543.33824432 653.33540475 C-541.20006084 575.45975904 -513.60574133 497.89751595 -464.41636932 437.276811 C-463.31808807 435.89235788 -463.31808807 435.89235788 -462.19761932 434.479936 C-456.99990654 428.00109684 -451.47050884 421.8685075 -445.81480682 415.79292428 C-444.43728927 414.29949132 -443.08037255 412.7898881 -441.72886932 411.27290475 C-435.04009501 403.79191045 -427.93543423 396.92047543 -420.41636932 390.276811 C-419.89317108 389.8141987 -419.36997283 389.35158639 -418.8309201 388.87495553 C-349.87349222 328.34112122 -264.38745478 301.29923594 -173.72081268 301.07148874 C-171.27498486 301.06188978 -168.82915863 301.05187858 -166.38333404 301.04148996 C-161.15235275 301.02018654 -155.92136991 301.00170157 -150.69036949 300.98588502 C-143.12755083 300.96301292 -135.56475853 300.93489588 -128.00196249 300.90556575 C-115.72694252 300.85810003 -103.45191165 300.81478007 -91.17686737 300.77412546 C-79.26442388 300.73466275 -67.35198999 300.69321138 -55.43956268 300.64912546 C-54.33509977 300.64503905 -54.33509977 300.64503905 -53.20832448 300.64087009 C-49.51387548 300.62718884 -45.81942662 300.61346892 -42.12497783 300.59972978 C-11.55546166 300.4860959 19.01407495 300.37928475 49.58363068 300.276811 C44.69709232 275.95374629 39.80989267 251.63081451 34.92200482 227.30802095 C32.42998544 214.90731602 29.93825213 202.50655371 27.4470129 190.10569203 C25.6883108 181.3514452 23.92893176 172.5973345 22.16939855 163.84325469 C20.8484702 157.27070784 19.52872384 150.69792488 18.20979381 144.12497675 C13.73645459 121.83456362 9.23997289 99.54930678 4.67762756 77.2769233 C3.32671049 70.67774568 1.98044474 64.07761701 0.63395518 57.47753477 C-0.64020676 51.23580769 -1.92302575 44.99594 -3.21235025 38.75732839 C-3.99936794 34.93947182 -4.77850048 31.12003794 -5.55545533 27.30012214 C-5.91619628 25.53521247 -6.2803245 23.77099127 -6.64807189 22.00752819 C-7.14826027 19.60711244 -7.63655499 17.20457098 -8.1219815 14.80113351 C-8.27000758 14.10542415 -8.41803366 13.40971478 -8.57054538 12.69292331 C-9.31470572 8.93633675 -9.61876593 5.94707968 -8.41636932 2.276811 C-5.72700042 -0.41255789 -3.65541709 0.0286225 0 0 Z M95.58363068 532.276811 C95.58363068 532.936811 95.58363068 533.596811 95.58363068 534.276811 C92.56761097 535.15036469 89.88044926 535.40404204 86.74485791 535.40988958 C85.76731004 535.41413063 84.78976217 535.41837167 83.78259164 535.42274123 C82.71111833 535.4223551 81.63964502 535.42196897 80.53570282 535.42157114 C79.3953904 535.42509798 78.25507797 535.42862483 77.08021063 535.43225855 C73.24435114 535.44296584 69.40851647 535.44663014 65.57264435 535.45039499 C62.82795167 535.45613864 60.08326359 535.46340592 57.33857453 535.47065866 C51.41876467 535.48559871 45.49895607 535.49714325 39.57913506 535.50660646 C31.00371484 535.52049208 22.42832398 535.54168348 13.85292486 535.56503499 C-0.08147809 535.60296321 -14.01588639 535.63792002 -27.95030487 535.66963327 C-29.201554 535.67248401 -29.201554 535.67248401 -30.47808089 535.67539234 C-42.29561044 535.70217979 -54.11314409 535.72606448 -65.93068209 535.74877734 C-66.76151307 535.75037464 -67.59234406 535.75197194 -68.44835174 535.75361764 C-69.27816556 535.75521111 -70.10797937 535.75680458 -70.96293906 535.75844633 C-84.8318018 535.78527566 -98.70063353 535.81970384 -112.56946284 535.86027139 C-121.11459472 535.8849638 -129.65969334 535.90333647 -138.20485517 535.913427 C-144.07179916 535.92085582 -149.93869847 535.93543862 -155.80561278 535.95549124 C-159.18365337 535.96680741 -162.56156044 535.97392773 -165.93962944 535.97448289 C-206.72548054 535.98659273 -238.01217612 545.45429699 -267.37486541 574.79634225 C-274.3505851 581.98814595 -280.1132526 589.79223265 -285.41636932 598.276811 C-285.99572235 599.20179391 -285.99572235 599.20179391 -286.58677948 600.14546335 C-295.64109289 614.96782894 -300.80475586 632.18078752 -303.41636932 649.276811 C-303.59941619 650.43567819 -303.78246307 651.59454538 -303.97105682 652.78852975 C-308.79035527 693.05035342 -301.19239017 740.03762746 -275.68980682 772.5033735 C-274.93957244 773.41860788 -274.18933807 774.33384225 -273.41636932 775.276811 C-272.70738494 776.15079538 -271.99840057 777.02477975 -271.26793182 777.9252485 C-252.68563383 799.72758369 -224.46655212 809.61323223 -196.61989331 812.06646752 C-190.73549464 812.45283731 -184.85291127 812.41013079 -178.95807159 812.39706552 C-177.52139686 812.3975024 -176.08472221 812.39837944 -174.64804798 812.39965469 C-170.72794595 812.40187678 -166.80787155 812.39790988 -162.88777304 812.39287663 C-158.65002634 812.38853928 -154.41228107 812.39002087 -150.17453277 812.3907789 C-142.84153458 812.39130206 -135.50854533 812.38817701 -128.17554939 812.38254106 C-117.57339976 812.37439785 -106.97125444 812.37180795 -96.36910202 812.37055307 C-79.1658612 812.36836698 -61.96262514 812.36171891 -44.7593869 812.35225046 C-28.05268141 812.34306487 -11.34597721 812.33598965 5.36073029 812.33174264 C6.3913408 812.33147992 7.42195131 812.3312172 8.48379245 812.33094651 C13.65430411 812.32964143 18.82481579 812.32837773 23.99532747 812.32713461 C66.8580985 812.3167758 109.72086435 812.29916954 152.58363068 812.276811 C152.08125493 806.71774402 151.50351574 801.2489196 150.39657319 795.77148569 C150.15778506 794.577636 149.91899693 793.38378631 149.6729728 792.15375936 C149.41186148 790.87396357 149.15075016 789.59416778 148.88172638 788.2755903 C148.60117232 786.88252554 148.32104856 785.48937406 148.04131615 784.09614408 C147.2796195 780.30875719 146.51191045 776.52261133 145.74315536 772.73665178 C144.92168401 768.68549568 144.10594075 764.63318608 143.28951752 760.58101022 C141.71032506 752.74751393 140.12606505 744.91505139 138.5398652 737.08297133 C136.71393076 728.06655785 134.89221577 719.04929376 133.07092917 710.03194046 C132.15583323 705.50122306 131.24060844 700.97053168 130.3253299 696.43985116 C130.14405824 695.5425343 129.96278658 694.64521743 129.77602184 693.72070915 C128.49125286 687.36152101 127.20534832 681.00256306 125.9190799 674.64367807 C121.87238482 654.63565401 117.84260891 634.62438499 113.84325248 614.60684353 C112.17683818 606.26632578 110.50578163 597.92673805 108.83461201 589.58717191 C107.65647242 583.70593282 106.48106007 577.82417414 105.31156647 571.9412092 C104.23432972 566.52261952 103.15023917 561.10544942 102.06056511 555.68934762 C101.66941709 553.73840813 101.28094013 551.7869309 100.89534676 549.83488595 C100.37800687 547.21730892 99.85145521 544.60175794 99.32240021 541.9865278 C99.174074 541.22391484 99.02574778 540.46130188 98.87292683 539.67557943 C98.07729759 535.55727136 98.07729759 535.55727136 95.58363068 532.276811 Z M-831.14299285 818.32362497 C-842.25520305 818.43509111 -853.36706988 818.56774061 -864.47886932 818.714311 C-865.23045822 818.72403436 -865.98204711 818.73375772 -866.75641143 818.74377573 C-871.13959745 818.80074267 -875.52268624 818.86208112 -879.90572441 818.92949998 C-881.8397294 818.95871591 -883.77377799 818.98500268 -885.70782745 819.01110971 C-893.45299139 819.13773443 -901.17995847 819.42744847 -908.91733062 819.78964365 C-909.93046435 819.8364126 -910.94359808 819.88318156 -911.98743284 819.93136775 C-914.46377973 820.04578653 -916.94008952 820.16095074 -919.41636932 820.276811 C-920.3145723 918.14216424 -920.64498619 1016.00703935 -920.93402857 1154.30169052 C-920.96642054 1170.66662039 -921.00016796 1187.03154689 -921.03492723 1203.3964719 C-921.2724754 1315.29009824 -921.47211183 1427.18363911 -921.41636932 1713.276811 C-904.06414901 1713.34731274 -886.71197425 1713.39999863 -869.35964286 1713.43224752 C-861.30021482 1713.44762819 -853.24087646 1713.46854625 -845.18150604 1713.50312936 C-838.14593603 1713.53330456 -831.11043105 1713.55244967 -824.07479811 1713.55907649 C-820.35947536 1713.56294188 -816.64433843 1713.57183492 -812.92907608 1713.59400117 C-758.86796947 1713.90353334 -714.2357922 1699.70390425 -675.22886932 1661.401811 C-653.14202047 1639.16540628 -637.45971027 1610.34007109 -630.60386932 1579.839311 C-630.40889862 1578.9838569 -630.21392791 1578.1284028 -630.01304901 1577.24702585 C-626.34037964 1559.64477009 -626.12343834 1541.76573443 -626.15567291 1523.86232126 C-626.15264602 1521.45328017 -626.14875386 1519.04424003 -626.14408034 1516.63520157 C-626.13598471 1511.43294321 -626.13398009 1506.23072081 -626.13758361 1501.02845895 C-626.14292829 1493.29182942 -626.13675782 1485.55523749 -626.12850068 1477.81861204 C-626.1133173 1463.19208839 -626.11154974 1448.56558214 -626.11402371 1433.93905225 C-626.11586133 1422.63919894 -626.11408694 1411.33935129 -626.10979927 1400.03949869 C-626.10919685 1398.41205241 -626.10859565 1396.78460613 -626.10799566 1395.15715985 C-626.10708834 1392.70430725 -626.10617967 1390.25145465 -626.10526331 1387.79860205 C-626.09684235 1365.01414821 -626.09249217 1342.2296965 -626.09667003 1319.44524133 C-626.09682641 1318.5875765 -626.09698278 1317.72991167 -626.0971439 1316.846257 C-626.0979496 1312.49995985 -626.09879537 1308.15366271 -626.0996572 1303.80736557 C-626.09982829 1302.94428433 -626.09999938 1302.0812031 -626.10017565 1301.19196789 C-626.10052231 1299.44661138 -626.10087084 1297.70125487 -626.10122123 1295.95589836 C-626.10657725 1268.80406733 -626.0986479 1241.65226879 -626.08018768 1214.50044382 C-626.05943796 1183.94588298 -626.04875058 1153.39134226 -626.05276316 1122.83677399 C-626.05315847 1119.57431146 -626.05352002 1116.31184892 -626.05386055 1113.04938638 C-626.05399664 1111.8445688 -626.05399664 1111.8445688 -626.05413549 1110.61541147 C-626.05529784 1098.5294145 -626.0486809 1086.44343795 -626.03804862 1074.35744607 C-626.02595843 1060.60075671 -626.02448149 1046.84411212 -626.03683879 1033.08742204 C-626.04343231 1025.40495143 -626.04191813 1017.72258812 -626.02825028 1010.04012626 C-626.01894799 1004.27945846 -626.02560783 998.51889184 -626.03809807 992.75823411 C-626.04072875 990.44617264 -626.03843053 988.13409842 -626.03036221 985.82204953 C-625.9380138 957.35566943 -628.9114371 929.74770977 -642.41636932 904.276811 C-642.75539276 903.62373971 -643.09441619 902.97066843 -643.44371307 902.2978071 C-651.16044833 887.53213097 -660.95116309 875.28719274 -672.41636932 863.276811 C-673.22847869 862.41185007 -674.04058807 861.54688913 -674.87730682 860.65571725 C-699.43363116 835.1854844 -734.26420792 819.05635513 -769.71324432 818.02143991 C-777.03147236 817.90552886 -784.34788405 817.96425307 -791.66636932 818.026811 C-793.70454943 818.03742823 -795.74273017 818.04573787 -797.78092182 818.05380666 C-808.90206235 818.09860695 -820.02235516 818.21352318 -831.14299285 818.32362497 Z M-303.41636932 1104.276811 C-304.26586151 1105.12630319 -305.11535369 1105.97579538 -305.99058807 1106.85102975 C-324.72196571 1126.62848782 -333.55711251 1150.40210587 -333.57750213 1177.40351999 C-333.58213684 1178.83670303 -333.58716237 1180.26988486 -333.5925473 1181.70306528 C-333.60561552 1185.58376615 -333.612106 1189.46444976 -333.61655796 1193.34516919 C-333.61949936 1195.77707256 -333.62360626 1198.20897132 -333.62806213 1200.64087236 C-333.64172601 1208.27082628 -333.65139655 1215.90076954 -333.65526402 1223.53073484 C-333.659734 1232.29826123 -333.67723713 1241.06563089 -333.70626462 1249.83310968 C-333.72799202 1256.63514629 -333.73797425 1263.43713918 -333.73930514 1270.23921007 C-333.74034583 1274.28956499 -333.74609401 1278.33977239 -333.76412475 1282.39009035 C-333.78079667 1286.20938014 -333.78267004 1290.02841456 -333.77398574 1293.84772813 C-333.77286751 1295.88902932 -333.78643848 1297.93032278 -333.80073822 1299.97157419 C-333.74553696 1312.43263273 -331.92317232 1324.78586018 -327.41636932 1336.464311 C-326.97405975 1337.62978464 -326.97405975 1337.62978464 -326.52281463 1338.81880319 C-318.18724788 1359.99906531 -306.21859471 1378.01787389 -290.41636932 1394.276811 C-289.88720916 1394.82933542 -289.35804901 1395.38185983 -288.81285369 1395.95112741 C-284.62424235 1400.25239959 -280.19850192 1404.02704886 -275.41636932 1407.651811 C-274.67652801 1408.21271432 -273.9366867 1408.77361764 -273.17442596 1409.35151803 C-258.44251558 1420.35205789 -242.85428458 1428.27216194 -225.22886932 1433.526811 C-224.46558319 1433.76101755 -223.70229705 1433.99522409 -222.91588104 1434.2365278 C-204.84177074 1439.3272866 -186.42600141 1439.70609937 -167.79136932 1439.526811 C-165.34329452 1439.51408661 -162.89521464 1439.50231106 -160.44713104 1439.49141061 C-153.1471203 1439.45169376 -145.84763171 1439.38133255 -138.54799163 1439.30036294 C-136.3731826 1439.27633384 -134.19836607 1439.25310421 -132.02354705 1439.22999704 C-121.52923615 1439.11743423 -111.03527 1438.98498204 -100.54136932 1438.839311 C-99.82623924 1438.82958765 -99.11110916 1438.81986429 -98.37430847 1438.80984628 C-93.55748295 1438.74409284 -88.74083656 1438.67049982 -83.92418182 1438.59321725 C-82.14427856 1438.5681183 -82.14427856 1438.5681183 -80.32841766 1438.5425123 C-70.34286693 1438.37070247 -60.3856767 1437.84449388 -50.41636932 1437.276811 C-49.25907215 1391.62696752 -49.10499954 1345.97043538 -48.89871007 1300.30860281 C-48.86384746 1292.59495442 -48.82721197 1284.88131604 -48.78969085 1277.16768014 C-48.42328567 1201.53704757 -48.28170588 1125.90819559 -48.41636932 1050.276811 C-67.77615561 1050.20643217 -87.1359156 1050.1536824 -106.49580371 1050.12137449 C-115.48686608 1050.10596828 -124.47784852 1050.0849997 -133.46885955 1050.05049264 C-141.3141442 1050.02039743 -149.15937091 1050.00119074 -157.00471169 1049.99454552 C-161.15085216 1049.99066698 -165.29682701 1049.98168575 -169.44291389 1049.95962083 C-223.197928 1049.68493783 -265.0395366 1065.70633926 -303.41636932 1104.276811 Z " fill="#FFFFFF" transform="translate(1182.416369318962,18.723188996315002)"/>
</svg>
